<svg id="mermaid-1610299006996" width="100%" xmlns="http://www.w3.org/2000/svg" xmlns:xlink="http://www.w3.org/1999/xlink" height="898.4375" style="max-width: 1453.796875px;" viewBox="-20 -20 1453.796875 898.4375"><style>#mermaid-1610299006996{font-family:"trebuchet ms",verdana,arial;font-size:16px;fill:#333;}#mermaid-1610299006996 .error-icon{fill:#552222;}#mermaid-1610299006996 .error-text{fill:#552222;stroke:#552222;}#mermaid-1610299006996 .edge-thickness-normal{stroke-width:2px;}#mermaid-1610299006996 .edge-thickness-thick{stroke-width:3.5px;}#mermaid-1610299006996 .edge-pattern-solid{stroke-dasharray:0;}#mermaid-1610299006996 .edge-pattern-dashed{stroke-dasharray:3;}#mermaid-1610299006996 .edge-pattern-dotted{stroke-dasharray:2;}#mermaid-1610299006996 .marker{fill:#333333;}#mermaid-1610299006996 .marker.cross{stroke:#333333;}#mermaid-1610299006996 svg{font-family:"trebuchet ms",verdana,arial;font-size:16px;}#mermaid-1610299006996 g.classGroup text{fill:#9370DB;fill:#131300;stroke:none;font-family:"trebuchet ms",verdana,arial;font-size:10px;}#mermaid-1610299006996 g.classGroup text .title{font-weight:bolder;}#mermaid-1610299006996 .classTitle{font-weight:bolder;}#mermaid-1610299006996 .node rect,#mermaid-1610299006996 .node circle,#mermaid-1610299006996 .node ellipse,#mermaid-1610299006996 .node polygon,#mermaid-1610299006996 .node path{fill:#ECECFF;stroke:#9370DB;stroke-width:1px;}#mermaid-1610299006996 .divider{stroke:#9370DB;stroke:1;}#mermaid-1610299006996 g.clickable{cursor:pointer;}#mermaid-1610299006996 g.classGroup rect{fill:#ECECFF;stroke:#9370DB;}#mermaid-1610299006996 g.classGroup line{stroke:#9370DB;stroke-width:1;}#mermaid-1610299006996 .classLabel .box{stroke:none;stroke-width:0;fill:#ECECFF;opacity:0.5;}#mermaid-1610299006996 .classLabel .label{fill:#9370DB;font-size:10px;}#mermaid-1610299006996 .relation{stroke:#333333;stroke-width:1;fill:none;}#mermaid-1610299006996 .dashed-line{stroke-dasharray:3;}#mermaid-1610299006996 #compositionStart,#mermaid-1610299006996 .composition{fill:#333333 !important;stroke:#333333 !important;stroke-width:1;}#mermaid-1610299006996 #compositionEnd,#mermaid-1610299006996 .composition{fill:#333333 !important;stroke:#333333 !important;stroke-width:1;}#mermaid-1610299006996 #dependencyStart,#mermaid-1610299006996 .dependency{fill:#333333 !important;stroke:#333333 !important;stroke-width:1;}#mermaid-1610299006996 #dependencyStart,#mermaid-1610299006996 .dependency{fill:#333333 !important;stroke:#333333 !important;stroke-width:1;}#mermaid-1610299006996 #extensionStart,#mermaid-1610299006996 .extension{fill:#333333 !important;stroke:#333333 !important;stroke-width:1;}#mermaid-1610299006996 #extensionEnd,#mermaid-1610299006996 .extension{fill:#333333 !important;stroke:#333333 !important;stroke-width:1;}#mermaid-1610299006996 #aggregationStart,#mermaid-1610299006996 .aggregation{fill:#ECECFF !important;stroke:#333333 !important;stroke-width:1;}#mermaid-1610299006996 #aggregationEnd,#mermaid-1610299006996 .aggregation{fill:#ECECFF !important;stroke:#333333 !important;stroke-width:1;}#mermaid-1610299006996 .edgeTerminals{font-size:11px;}#mermaid-1610299006996:root{--mermaid-font-family:"trebuchet ms",verdana,arial,sans-serif;}#mermaid-1610299006996 class{fill:apa;}</style><g></g><defs><marker id="extensionStart" class="extension" refX="0" refY="7" markerWidth="190" markerHeight="240" orient="auto"><path d="M 1,7 L18,13 V 1 Z"></path></marker></defs><defs><marker id="extensionEnd" refX="19" refY="7" markerWidth="20" markerHeight="28" orient="auto"><path d="M 1,1 V 13 L18,7 Z"></path></marker></defs><defs><marker id="compositionStart" class="extension" refX="0" refY="7" markerWidth="190" markerHeight="240" orient="auto"><path d="M 18,7 L9,13 L1,7 L9,1 Z"></path></marker></defs><defs><marker id="compositionEnd" refX="19" refY="7" markerWidth="20" markerHeight="28" orient="auto"><path d="M 18,7 L9,13 L1,7 L9,1 Z"></path></marker></defs><defs><marker id="aggregationStart" class="extension" refX="0" refY="7" markerWidth="190" markerHeight="240" orient="auto"><path d="M 18,7 L9,13 L1,7 L9,1 Z"></path></marker></defs><defs><marker id="aggregationEnd" refX="19" refY="7" markerWidth="20" markerHeight="28" orient="auto"><path d="M 18,7 L9,13 L1,7 L9,1 Z"></path></marker></defs><defs><marker id="dependencyStart" class="extension" refX="0" refY="7" markerWidth="190" markerHeight="240" orient="auto"><path d="M 5,7 L9,13 L1,7 L9,1 Z"></path></marker></defs><defs><marker id="dependencyEnd" refX="19" refY="7" markerWidth="20" markerHeight="28" orient="auto"><path d="M 18,7 L9,13 L14,7 L9,1 Z"></path></marker></defs><g id="classid-DeckBuilder-15763" class="classGroup" transform="translate(0,544.96875 )"><rect x="0" y="0" width="191.1875" height="88.09375" class=" "></rect><text y="15" x="0"><tspan class="title" x="67.3984375">DeckBuilder</tspan></text><line x1="0" y1="21.5" y2="21.5" x2="191.1875"></line><text x="5" y="31.5" fill="white" class="classText"></text><line x1="0" y1="26.5" y2="26.5" x2="191.1875"></line><text x="5" y="41.5" fill="white" class="classText"><tspan x="5">-generate(vector&lt;int&gt;,vector&lt;int&gt;, int)</tspan><tspan x="5" dy="10">-concat(vector&lt;Card&gt;,vector&lt;Card&gt;)</tspan><tspan x="5" dy="10">+generate32()</tspan><tspan x="5" dy="10">+generate52(bool)</tspan><tspan x="5" dy="10">+generateUno()</tspan></text></g><g id="classid-Bataille-15764" class="classGroup" transform="translate(241.1875,564.96875 )"><rect x="0" y="0" width="56.6875" height="48.09375" class=" "></rect><text y="15" x="0"><tspan class="title" x="10.7421875">Bataille</tspan></text><line x1="0" y1="21.5" y2="21.5" x2="56.6875"></line><text x="5" y="31.5" fill="white" class="classText"></text><line x1="0" y1="26.5" y2="26.5" x2="56.6875"></line><text x="5" y="41.5" fill="white" class="classText"><tspan x="5">Bataille()</tspan></text></g><g id="classid-Deck-15765" class="classGroup" transform="translate(1126.453125,509.21875 )"><rect x="0" y="0" width="158.8125" height="159.59375" class=" "></rect><text y="15" x="0"><tspan class="title" x="68.015625">Deck</tspan></text><line x1="0" y1="21.5" y2="21.5" x2="158.8125"></line><text x="5" y="31.5" fill="white" class="classText"><tspan x="5">-owner: Player</tspan><tspan x="5" dy="10">-deck: vector&lt;Card&gt;</tspan></text><line x1="0" y1="48" y2="48" x2="158.8125"></line><text x="5" y="63" fill="white" class="classText"><tspan x="5">+Deck()</tspan><tspan x="5" dy="10">+Deck(vector&lt;Card&gt;)</tspan><tspan x="5" dy="10">+putCard(Card) : void</tspan><tspan x="5" dy="10">+getCard() : Card</tspan><tspan x="5" dy="10">+shuffle() : void</tspan><tspan x="5" dy="10">+setOwner(Player *) : void</tspan><tspan x="5" dy="10">+setPioche(vector&lt;Card&gt;) : void</tspan><tspan x="5" dy="10">+getOwner() : Player</tspan><tspan x="5" dy="10">+getSize() : int</tspan><tspan x="5" dy="10">+piocheCard() : Card</tspan></text></g><g id="classid-Briscola-15766" class="classGroup" transform="translate(995.515625,559.21875 )"><rect x="0" y="0" width="80.9375" height="59.59375" class=" "></rect><text y="15" x="0"><tspan class="title" x="22.1796875">Briscola</tspan></text><line x1="0" y1="21.5" y2="21.5" x2="80.9375"></line><text x="5" y="31.5" fill="white" class="classText"><tspan x="5">-briscola: Card</tspan></text><line x1="0" y1="38" y2="38" x2="80.9375"></line><text x="5" y="53" fill="white" class="classText"><tspan x="5">+Briscola()</tspan></text></g><g id="classid-Scopa-15767" class="classGroup" transform="translate(763.40625,509.1875 )"><rect x="0" y="0" width="182.109375" height="159.65625" class=" "></rect><text y="15" x="0"><tspan class="title" x="77.53125">Scopa</tspan></text><line x1="0" y1="21.5625" y2="21.5625" x2="182.109375"></line><text x="5" y="31.5625" fill="white" class="classText"><tspan x="5">-defausse: vector&lt;Deck *&gt;</tspan><tspan x="5" dy="10">-indexLastTake: int</tspan></text><line x1="0" y1="48.0625" y2="48.0625" x2="182.109375"></line><text x="5" y="63.0625" fill="white" class="classText"><tspan x="5">+Scopa()</tspan><tspan x="5" dy="10">+isValidTake(vector&lt;int&gt;) : bool</tspan><tspan x="5" dy="10">+indexBiggestDeck() : int</tspan><tspan x="5" dy="10">+indexBiggestTrefles() : int</tspan><tspan x="5" dy="10">i+ndex7ofTrefles()</tspan><tspan x="5" dy="10">+indexPrimiera() : int</tspan><tspan x="5" dy="10">+getScore(Card *) : int</tspan><tspan x="5" dy="10">+indexBiggestInTab(vector&lt;int&gt;) : int</tspan><tspan x="5" dy="10">+areHandsEmpty() : bool</tspan><tspan x="5" dy="10">+getValue(Card *) : int</tspan></text></g><g id="classid-Game-15768" class="classGroup" transform="translate(558.0078125,149.59375 )"><rect x="0" y="0" width="171.859375" height="309.59375" class=" "></rect><text y="15" x="0"><tspan x="62.234375">«abstract»</tspan><tspan class="title" dy="10" x="72.734375">Game</tspan></text><line x1="0" y1="31.5" y2="31.5" x2="171.859375"></line><text x="5" y="41.5" fill="white" class="classText"><tspan x="5">-name: string</tspan><tspan x="5" dy="10">-min: int</tspan><tspan x="5" dy="10">-max: int</tspan><tspan x="5" dy="10">-seeBoard: int</tspan><tspan x="5" dy="10">-seeOwn: int</tspan><tspan x="5" dy="10">#turnToPlay: int</tspan><tspan x="5" dy="10">#direction: bool</tspan><tspan x="5" dy="10">#players: vector&lt;Player&gt;</tspan><tspan x="5" dy="10">#*deck: Deck</tspan></text><line x1="0" y1="128" y2="128" x2="171.859375"></line><text x="5" y="143" fill="white" class="classText"><tspan x="5">-enoughPlayers(min, max)</tspan><tspan x="5" dy="10">+Game()</tspan><tspan x="5" dy="10">+init(Cards)</tspan><tspan x="5" dy="10">+iterate(vector&lt;Card&gt;, int) : void</tspan><tspan x="5" dy="10">+checkForWinners() : Player</tspan><tspan x="5" dy="10">+draw() : void</tspan><tspan x="5" dy="10">+turnOf() : Player</tspan><tspan x="5" dy="10">+nextTurn() : void</tspan><tspan x="5" dy="10">+hasPlayable() : bool</tspan><tspan x="5" dy="10">+nextPlayer() : Player</tspan><tspan x="5" dy="10">+start() : void</tspan><tspan x="5" dy="10">+automatic()</tspan><tspan x="5" dy="10">+checkForWinners() : Player</tspan><tspan x="5" dy="10">+canContinue() : bool</tspan><tspan x="5" dy="10">+isPlayable(Card) : bool</tspan><tspan x="5" dy="10">messages(int)</tspan><tspan x="5" dy="10">InputMessages(int, int, bool *) : int</tspan></text></g><g id="classid-Player-15769" class="classGroup" transform="translate(1148.46875,723.8125 )"><rect x="0" y="0" width="114.78125" height="129.65625" class=" "></rect><text y="15" x="0"><tspan class="title" x="42.6328125">Player</tspan></text><line x1="0" y1="21.5625" y2="21.5625" x2="114.78125"></line><text x="5" y="31.5625" fill="white" class="classText"><tspan x="5">-robot: bool</tspan><tspan x="5" dy="10">-name: string</tspan><tspan x="5" dy="10">-main: vector&lt;Card *&gt;</tspan></text><line x1="0" y1="58.0625" y2="58.0625" x2="114.78125"></line><text x="5" y="73.0625" fill="white" class="classText"><tspan x="5">+Player(string)</tspan><tspan x="5" dy="10">+getName() : string</tspan><tspan x="5" dy="10">+getCards()</tspan><tspan x="5" dy="10">+addCard(Card *)</tspan><tspan x="5" dy="10">+setRobot(bool) : void</tspan><tspan x="5" dy="10">+getRobot() : bool</tspan></text></g><g id="classid-Card-15770" class="classGroup" transform="translate(1313.25,718.84375 )"><rect x="0" y="0" width="100.546875" height="139.59375" class=" "></rect><text y="15" x="0"><tspan class="title" x="39.5078125">Card</tspan></text><line x1="0" y1="21.5" y2="21.5" x2="100.546875"></line><text x="5" y="31.5" fill="white" class="classText"><tspan x="5">-value: int</tspan><tspan x="5" dy="10">-color: int</tspan><tspan x="5" dy="10">-type: int</tspan><tspan x="5" dy="10">-hint: int</tspan></text><line x1="0" y1="68" y2="68" x2="100.546875"></line><text x="5" y="83" fill="white" class="classText"><tspan x="5">+Card(int, int, int)</tspan><tspan x="5" dy="10">+getValue() : int</tspan><tspan x="5" dy="10">+getColor() : int</tspan><tspan x="5" dy="10">+getType() : int</tspan><tspan x="5" dy="10">+getHint() : int</tspan><tspan x="5" dy="10">+setHint(int) : void</tspan></text></g><g id="classid-CrazyEights-15771" class="classGroup" transform="translate(555.640625,554.9375 )"><rect x="0" y="0" width="157.765625" height="68.15625" class=" "></rect><text y="15" x="0"><tspan class="title" x="51.765625">CrazyEights</tspan></text><line x1="0" y1="21.5625" y2="21.5625" x2="157.765625"></line><text x="5" y="31.5625" fill="white" class="classText"></text><line x1="0" y1="26.5625" y2="26.5625" x2="157.765625"></line><text x="5" y="41.5625" fill="white" class="classText"><tspan x="5">+CrazyEights()</tspan><tspan x="5" dy="10">+applyEffects(Card *, int) : void</tspan><tspan x="5" dy="10">+getScore(Card *) : int</tspan></text></g><g id="classid-Uno-15772" class="classGroup" transform="translate(347.875,554.96875 )"><rect x="0" y="0" width="157.765625" height="68.09375" class=" "></rect><text y="15" x="0"><tspan class="title" x="69.7109375">Uno</tspan></text><line x1="0" y1="21.5" y2="21.5" x2="157.765625"></line><text x="5" y="31.5" fill="white" class="classText"></text><line x1="0" y1="26.5" y2="26.5" x2="157.765625"></line><text x="5" y="41.5" fill="white" class="classText"><tspan x="5">+Uno()</tspan><tspan x="5" dy="10">+applyEffects(Card *, int) : void</tspan><tspan x="5" dy="10">+getScore(Card *) : int</tspan></text></g><g id="classid-Score-15773" class="classGroup" transform="translate(675.58203125,759.59375 )"><rect x="0" y="0" width="87.3125" height="58.09375" class=" "></rect><text y="15" x="0"><tspan x="17.953125">«Interface»</tspan><tspan class="title" dy="10" x="30.6953125">Score</tspan></text><line x1="0" y1="31.5" y2="31.5" x2="87.3125"></line><text x="5" y="41.5" fill="white" class="classText"></text><line x1="0" y1="36.5" y2="36.5" x2="87.3125"></line><text x="5" y="51.5" fill="white" class="classText"><tspan x="5">+getPoints()</tspan></text></g><g id="classid-View-15774" class="classGroup" transform="translate(779.8671875,264.59375 )"><rect x="0" y="0" width="128.90625" height="79.59375" class=" "></rect><text y="15" x="0"><tspan class="title" x="53.0546875">View</tspan></text><line x1="0" y1="21.5" y2="21.5" x2="128.90625"></line><text x="5" y="31.5" fill="white" class="classText"><tspan x="5">-model: Game</tspan></text><line x1="0" y1="38" y2="38" x2="128.90625"></line><text x="5" y="53" fill="white" class="classText"><tspan x="5">+View()</tspan><tspan x="5" dy="10">+View(Game *)</tspan><tspan x="5" dy="10">+display(string, int, bool)</tspan></text></g><g id="classid-Controller-15775" class="classGroup" transform="translate(684.65234375,0 )"><rect x="0" y="0" width="118.953125" height="99.59375" class=" "></rect><text y="15" x="0"><tspan class="title" x="35.7265625">Controller</tspan></text><line x1="0" y1="21.5" y2="21.5" x2="118.953125"></line><text x="5" y="31.5" fill="white" class="classText"><tspan x="5">-model: Game</tspan><tspan x="5" dy="10">-view: View</tspan></text><line x1="0" y1="48" y2="48" x2="118.953125"></line><text x="5" y="63" fill="white" class="classText"><tspan x="5">+start() : void</tspan><tspan x="5" dy="10">+chooseGame() : string</tspan><tspan x="5" dy="10">+validateInput() : int</tspan><tspan x="5" dy="10">+createPlayers()</tspan></text></g><path d="M558.0078125,345.6556660676279L509.9283854166667,368.74430505635655C461.8489583333333,391.83294404508524,365.6901041666667,438.0102220225426,317.6106770833333,474.562402677938C269.53125,511.1145833333333,269.53125,538.0416666666666,269.53125,551.5052083333334L269.53125,564.96875" id="edge9362" class="relation" marker-start="url(#extensionStart)"></path><g class="classLabel"><rect class="box" x="349.328125" y="420.40625" width="56.0625" height="16.515625"></rect><text class="label" x="377.35955823961444" y="432.406332196259" fill="red" text-anchor="middle">inheritance</text></g><path d="M729.8671875,377.77860244183023L750.6328125,395.51341870152515C771.3984375,413.24823496122013,812.9296875,448.71786748061004,833.6953125,470.6193504069717C854.4609375,492.5208333333333,854.4609375,500.8541666666667,854.4609375,505.0208333333333L854.4609375,509.1875" id="edge9363" class="relation" marker-start="url(#extensionStart)"></path><g class="classLabel"><rect class="box" x="773.625" y="427.09375" width="56.078125" height="16.515625"></rect><text class="label" x="801.6692959767101" y="439.10096576550285" fill="red" text-anchor="middle">inheritance</text></g><path d="M729.8671875,343.79889545803275L780.88671875,367.19699621502724C831.90625,390.59509697202185,933.9453125,437.39129848601095,984.96484375,473.2946075763388C1035.984375,509.1979166666667,1035.984375,534.2083333333334,1035.984375,546.7135416666666L1035.984375,559.21875" id="edge9364" class="relation" marker-start="url(#extensionStart)"></path><g class="classLabel"><rect class="box" x="888.984375" y="417.625" width="56.078125" height="16.515625"></rect><text class="label" x="917.0263333984763" y="429.63207436097673" fill="red" text-anchor="middle">inheritance</text></g><path d="M558.0078125,375.52936481528116L536.1328125,393.6390540127343C514.2578125,411.74874321018746,470.5078125,447.9681216050937,448.6328125,477.8746858025468C426.7578125,507.78125,426.7578125,531.375,426.7578125,543.171875L426.7578125,554.96875" id="edge9365" class="relation" marker-start="url(#extensionStart)"></path><g class="classLabel"><rect class="box" x="437.078125" y="440.421875" width="56.078125" height="16.515625"></rect><text class="label" x="465.1218965204231" y="452.4269679792073" fill="red" text-anchor="middle">inheritance</text></g><path d="M635.8324233347093,459.1875L635.6142590289245,463.3541666666667C635.3960947231395,467.5208333333333,634.9597661115698,475.8541666666667,634.7416018057849,491.8125C634.5234375,507.7708333333333,634.5234375,531.3541666666666,634.5234375,543.1458333333334L634.5234375,554.9375" id="edge9366" class="relation" marker-start="url(#extensionStart)"></path><g class="classLabel"><rect class="box" x="606.484375" y="495.03125" width="56.078125" height="16.515625"></rect><text class="label" x="634.5234375" y="507.04537728833554" fill="red" text-anchor="middle">inheritance</text></g><path d="M558.0078125,332.56617962650313L480.9388020833333,357.8363996887526C403.8697916666667,383.10661975100203,249.73177083333334,433.64705987550104,172.66276041666666,469.04748827108386C95.59375,504.4479166666667,95.59375,524.7083333333334,95.59375,534.8385416666666L95.59375,544.96875" id="edge9367" class="relation dashed-line" marker-start="url(#extensionStart)"></path><g class="classLabel"><rect class="box" x="268.46875" y="405.84375" width="58.90625" height="16.5625"></rect><text class="label" x="297.9228993091877" y="417.8456318430267" fill="red" text-anchor="middle">dependency</text></g><path d="M1205.859375,668.8125L1205.859375,672.984375C1205.859375,677.15625,1205.859375,685.5,1205.859375,694.6666666666666C1205.859375,703.8333333333334,1205.859375,713.8229166666666,1205.859375,718.8177083333334L1205.859375,723.8125" id="edge9368" class="relation" marker-start="url(#compositionStart)"></path><g class="classLabel"><rect class="box" x="1176.296875" y="684.3125" width="59.125" height="16.5625"></rect><text class="label" x="1205.859375" y="696.3125" fill="red" text-anchor="middle">composition</text></g><path d="M1285.265625,641.8114756763788L1298.30859375,650.4835213969824C1311.3515625,659.1555671175859,1337.4375,676.4996585587929,1350.48046875,689.3383709460632C1363.5234375,702.1770833333334,1363.5234375,710.5104166666666,1363.5234375,714.6770833333334L1363.5234375,718.84375" id="edge9369" class="relation" marker-start="url(#compositionStart)"></path><g class="classLabel"><rect class="box" x="1305.25" y="662.734375" width="59.109375" height="16.578125"></rect><text class="label" x="1334.803722061051" y="674.748504880342" fill="red" text-anchor="middle">composition</text></g><path d="M729.8671875,331.88535330582823L809.19921875,357.26904442152346C888.53125,382.6527355372188,1047.1953125,433.4201177686094,1126.52734375,462.9756838843047C1205.859375,492.53125,1205.859375,500.875,1205.859375,505.046875L1205.859375,509.21875" id="edge9370" class="relation" marker-start="url(#compositionStart)"></path><g class="classLabel"><rect class="box" x="950.21875" y="399.84375" width="59.125" height="16.5625"></rect><text class="label" x="979.7835763213532" y="411.85053658217646" fill="red" text-anchor="middle">composition</text></g><path d="M426.7578125,623.0625L426.7578125,634.859375C426.7578125,646.65625,426.7578125,670.25,468.228515625,695.4880906719533C509.69921875,720.7261813439064,592.640625,747.608612687813,634.111328125,761.0498283597663L675.58203125,774.4910440317195" id="edge9371" class="relation dashed-line" marker-end="url(#extensionEnd)"></path><g class="classLabel"><rect class="box" x="490.96875" y="711.25" width="53.0625" height="16.515625"></rect><text class="label" x="517.5034697635165" y="723.2556446306646" fill="red" text-anchor="middle">realization</text></g><path d="M634.5234375,623.09375L634.5234375,634.8854166666666C634.5234375,646.6770833333334,634.5234375,670.2604166666666,644.3163077406462,693.0104166666666C654.1091779812922,715.7604166666666,673.6949184625845,737.6770833333334,683.4877887032306,748.6354166666666L693.2806589438767,759.59375" id="edge9372" class="relation dashed-line" marker-end="url(#extensionEnd)"></path><g class="classLabel"><rect class="box" x="613.796875" y="688.328125" width="53.0625" height="16.515625"></rect><text class="label" x="640.3301653679548" y="700.3415446188744" fill="red" text-anchor="middle">realization</text></g><path d="M854.4609375,668.84375L854.4609375,673.0104166666666C854.4609375,677.1770833333334,854.4609375,685.5104166666666,838.8294629244273,700.6354166666666C823.1979883488544,715.7604166666666,791.935039197709,737.6770833333334,776.3035646221362,748.6354166666666L760.6720900465634,759.59375" id="edge9373" class="relation dashed-line" marker-end="url(#extensionEnd)"></path><g class="classLabel"><rect class="box" x="791.265625" y="707.53125" width="53.0625" height="16.515625"></rect><text class="label" x="817.8018957052492" y="719.5433087796462" fill="red" text-anchor="middle">realization</text></g><path d="M1035.984375,618.8125L1035.984375,631.3177083333334C1035.984375,643.8229166666666,1035.984375,668.8333333333334,990.4694010416666,694.9604217216796C944.9544270833334,721.0875101100258,853.9244791666666,748.3312702200516,808.4095052083334,761.9531502750647L762.89453125,775.5750303300775" id="edge9374" class="relation dashed-line" marker-end="url(#extensionEnd)"></path><g class="classLabel"><rect class="box" x="908.84375" y="711.9375" width="53.0625" height="16.515625"></rect><text class="label" x="935.379984770638" y="723.9529825784177" fill="red" text-anchor="middle">realization</text></g><path d="M803.60546875,94.19849762661312L810.3912760416666,99.2643730221776C817.1770833333334,104.33024841774208,830.7486979166666,114.46199920887103,837.5345052083334,142.86120793776885C844.3203125,171.26041666666666,844.3203125,217.92708333333334,844.3203125,241.26041666666666L844.3203125,264.59375" id="edge9375" class="relation" marker-start="url(#compositionStart)"></path><g class="classLabel"><rect class="box" x="814.765625" y="157.1875" width="59.109375" height="16.5625"></rect><text class="label" x="844.3203125" y="169.18917428799097" fill="red" text-anchor="middle">composition</text></g><path d="M684.65234375,94.19849762661312L677.8665364583334,99.2643730221776C671.0807291666666,104.33024841774208,657.5091145833334,114.46199920887103,650.7233072916666,123.69454127110218C643.9375,132.92708333333334,643.9375,141.26041666666666,643.9375,145.42708333333334L643.9375,149.59375" id="edge9376" class="relation" marker-start="url(#compositionStart)"></path><g class="classLabel"><rect class="box" x="624.71875" y="104.859375" width="59.125" height="16.578125"></rect><text class="label" x="654.2783100519098" y="116.87392346196854" fill="red" text-anchor="middle">composition</text></g></svg>